# xmcd
#
# Track frame offsets: 
#        150
#        14689
#        26957
#        43022
#        60863
#        73681
#        88326
#        105371
#        116012
#        135264
#        153284
#        169491
#        181807
#        196984
#        216070
#
# Disc length: 3077 seconds
#
# Revision: 4
# Processed by: cddbd v1.5.2PL0 Copyright (c) Steve Scherf et al.
# Submitted via: ExactAudioCopy v0.99pb4
#
DISCID=cc0c030f
DTITLE=Various Artist - Superstars of Country: Party Time (2 of 2)
DYEAR=2005
DGENRE=Country
TTITLE0=Glen Campbell - Rhinestone Cowboy
TTITLE1=Merle Haggard - If We Make it Through December
TTITLE2=Kenny Rogers - The Gambler
TTITLE3=Juice Newton - Angel of the Morning
TTITLE4=Michael Martin Murphey - What's Forever For
TTITLE5=Anne Murray - Could I Have This Dance?
TTITLE6=Kenny Rogers - Lady
TTITLE7=Merle Haggard - Today I Started Loving You Again
TTITLE8=Bobbie Gentry - Ode to Billy Joe
TTITLE9=Bobby Goldsboro - Honey
TTITLE10=Kenny Rogers - Lucille
TTITLE11=Merle Haggard and the Strangers - Okie From Muskogee
TTITLE12=Jessi Colter - I'm Not Lisa
TTITLE13=Kenny Rogers - She Believes in Me
TTITLE14=Cristy Lane - One Day at a Time
EXTD=
EXTT0=
EXTT1=
EXTT2=
EXTT3=
EXTT4=
EXTT5=
EXTT6=
EXTT7=
EXTT8=
EXTT9=
EXTT10=
EXTT11=
EXTT12=
EXTT13=
EXTT14=
PLAYORDER=
